# xmcd
#
# Track frame offsets:
#	150
#	17770
#	30301
#	44652
#	53697
#	77826
#	93275
#	115572
#	134341
#	149860
#	180490
#	200273
#	226229
#	251288
#	274741
#	313515
#
# Disc length: 4622 seconds
#
# Revision: 0
# Processed by: cddbd v1.5.1PL2 Copyright (c) Steve Scherf et al.
# Submitted via: audiograbber 1.83.01
#
DISCID=d0120c10
DTITLE=Eddie Boyd - Mello Hello
DYEAR=1900
DGENRE=Blues
TTITLE0=My idea
TTITLE1=The big boat
TTITLE2=Curtain out
TTITLE3=Interview
TTITLE4=Praise to Helsinki
TTITLE5=Five long years
TTITLE6=24 hours
TTITLE7=I got to know
TTITLE8=I cried
TTITLE9=number nine
TTITLE10=Sweet leila
TTITLE11=Double clutching
TTITLE12=Talking to the operator
TTITLE13=I dont need no fireplace
TTITLE14=Blow wind blow
TTITLE15=The right time
EXTD=
EXTT0=
EXTT1=
EXTT2=
EXTT3=
EXTT4=
EXTT5=
EXTT6=
EXTT7=
EXTT8=
EXTT9=
EXTT10=
EXTT11=
EXTT12=
EXTT13=
EXTT14=
EXTT15=
PLAYORDER=
